<?xml version="1.0" standalone="no"?><!DOCTYPE svg PUBLIC "-//W3C//DTD SVG 1.1//EN" "http://www.w3.org/Graphics/SVG/1.1/DTD/svg11.dtd"><svg class="icon" height="512" viewBox="0 0 1024 1024" version="1.1" xmlns="http://www.w3.org/2000/svg"><path d="M942.987918 860.672144l-177.941691-177.942715c112.155383-151.872966 99.466386-366.993418-38.084387-504.544191-151.540392-151.540392-397.235187-151.540392-548.775578 0-151.540392 151.540392-151.540392 397.235187 0 548.775579C315.737034 864.512612 530.856463 877.201609 682.730453 765.046227l177.941691 177.942714c21.973454 21.973454 57.599859 21.973454 79.57229 0l2.743484-2.744507c21.974477-21.973454 21.974477-57.598836 0-79.57229zM657.285944 657.284921c-113.810069 113.810069-298.331619 113.810069-412.141688 0-113.810069-113.809045-113.810069-298.331619 0-412.141688 113.810069-113.809045 298.331619-113.809045 412.141688 0 113.809045 113.810069 113.809045 298.332642 0 412.141688zM498.80856 388.04692c8.327666 0 8.350179-13.048177 0-13.048177h-32.501228a7.414877 7.414877 0 0 0-2.261507 0h-32.500205c-8.339946 0-8.345062 13.048177 0 13.048177h27.161616v130.897236h-27.161616c-8.339946 0-8.345062 13.049201 0 13.049201h31.0686a7.321756 7.321756 0 0 0 5.127787 0h31.067576c8.327666 0 8.350179-13.049201 0-13.049201H471.64592V388.04692h27.16264z m-95.115288-12.848632c-2.739391-1.6158-7.448646-0.905626-8.859785 2.340301a39691.667226 39691.667226 0 0 1-21.404496 49.494251c-11.31265 26.178219-22.63758 52.357462-33.960463 78.536704-0.856507 1.973958-1.708921 3.948939-2.555195 5.921873-6.169513-12.489452-12.33391-24.977881-18.501376-37.46938-12.898775-26.131147-25.790386-52.260248-38.697348-78.391395-2.977821-6.030343-5.951549-12.060687-8.930393-18.092053-1.556449-3.15383-5.974062-4.03285-8.849552-2.340301-3.185552 1.87879-3.89061 5.760191-2.321881 8.925276 8.149611 16.512069 16.298198 33.025161 24.442691 49.53723 12.907984 26.133194 25.805736 52.262294 38.707581 78.392418 2.968611 6.030343 5.946432 12.06171 8.925276 18.093077 2.029216 4.100388 9.250688 4.431939 11.171434 0 7.135514-16.500812 14.275121-32.997532 21.409612-49.495274 11.31879-26.179242 22.642696-52.357462 33.96558-78.536705 2.593058-5.996574 5.187139-11.993149 7.786337-17.990746 1.38965-3.226484 0.933255-7.000438-2.328022-8.925276z m229.148957 4.940522v138.113591h-5.501294c-8.366551-15.278985-16.739243-30.55797-25.110911-45.835931-14.286378-26.083052-28.589129-52.16508-42.875506-78.248132-3.287883-6.004761-6.580882-12.010545-9.868765-18.013259-1.064238-1.933025-3.387144-3.328815-5.594415-3.232624-5.257747 0.230244-10.520611 0.462534-15.783475 0.689708-3.52222 0.156566-6.435573 2.867304-6.472412 6.525624-0.157589 16.461927-0.303922 32.9259-0.466627 49.387827-0.239454 26.004257-0.48914 52.011584-0.737804 78.016864-0.049119 5.975085-0.10847 11.95017-0.162706 17.924232-0.081864 8.399297 12.858866 8.40646 12.93459 0l0.471745-49.386804c0.249687-26.004257 0.48914-52.011584 0.732687-78.016865 0.042979-3.89675 0.076748-7.788383 0.113587-11.682063l5.653767-0.248664c8.338922 15.225773 16.673751 30.448476 25.023929 45.673226 14.280238 26.082028 28.572756 52.166103 42.86425 78.249155 3.292999 6.004761 6.581905 12.008498 9.874905 18.013259 1.090844 1.998517 3.347235 3.230578 5.589299 3.230578h15.789614c3.488451 0 6.461155-2.988054 6.461156-6.523577V380.13881c-0.001023-8.395204-12.935614-8.40953-12.935614 0z" /></svg>